<?xml version="1.0" encoding="utf-8"?>
<!-- Generator: Adobe Illustrator 16.0.3, SVG Export Plug-In . SVG Version: 6.00 Build 0)  -->
<!DOCTYPE svg PUBLIC "-//W3C//DTD SVG 1.1//EN" "http://www.w3.org/Graphics/SVG/1.1/DTD/svg11.dtd">
<svg xmlns="http://www.w3.org/2000/svg" xmlns:xlink="http://www.w3.org/1999/xlink" version="1.1" id="Warstwa_1" x="0px" y="0px" width="650px" height="300px" viewBox="0 0 650 300" xml:space="preserve">
<polyline fill="#08B3BD" points="0,300 0,0 650,0 650,300 "/>
<g opacity="0.8">
	<g>
		<g>
			<path fill="#414042" d="M443.837,140.585h21.093c0.531,0,0.962-0.437,0.962-0.975c0-0.539-0.431-0.978-0.962-0.978h-21.093     c-0.531,0-0.962,0.438-0.962,0.978C442.875,140.149,443.306,140.585,443.837,140.585z"/>
		</g>
		<g>
			<path fill="#414042" d="M452.044,147.361h6.915c0.531,0,0.962-0.438,0.962-0.978s-0.431-0.976-0.962-0.976h-6.915     c-0.529,0-0.962,0.437-0.962,0.976S451.515,147.361,452.044,147.361z"/>
		</g>
		<g>
			<path fill="#414042" d="M449.516,154.129h17.821c0.531,0,0.963-0.438,0.963-0.977s-0.432-0.977-0.963-0.977h-17.821     c-0.531,0-0.963,0.438-0.963,0.977S448.985,154.129,449.516,154.129z"/>
		</g>
		<g>
			<path fill="#414042" d="M434.156,147.361h10.799c0.531,0,0.962-0.438,0.962-0.978s-0.431-0.976-0.962-0.976h-10.799     c-0.531,0-0.962,0.437-0.962,0.976S433.623,147.361,434.156,147.361z"/>
		</g>
	</g>
	<g>
		<g>
			<rect x="160.01" y="150.464" fill="#F1F2F2" width="53.575" height="81.341"/>
			<path fill="#414042" d="M214.561,148.514h-55.525H141.23c-0.539,0-0.976,0.438-0.976,0.978v82.867     c0,0.389,0.229,0.739,0.585,0.895c0.354,0.154,0.77,0.086,1.053-0.178l8.014-7.425l8.466,7.847     c0.047,0.043,0.105,0.066,0.159,0.1c0.046,0.029,0.087,0.064,0.138,0.086c0.117,0.048,0.241,0.074,0.366,0.074h55.525     c0.538,0,0.977-0.438,0.977-0.977v-83.289C215.537,148.952,215.099,148.514,214.561,148.514z M213.586,231.805H160.01v-81.341     h53.575L213.586,231.805L213.586,231.805z M142.206,230.124v-79.66h15.854v80.082l-7.489-6.941     c-0.188-0.173-0.426-0.26-0.663-0.26c-0.238,0-0.477,0.087-0.663,0.26L142.206,230.124z"/>
			<path fill="#BCBEC0" d="M150.57,223.604l7.489,6.941v-80.082h-15.854v79.66l7.037-6.521c0.187-0.173,0.425-0.26,0.663-0.26     C150.143,223.344,150.382,223.432,150.57,223.604z"/>
		</g>
		<g>
			<path fill="#FFFFFF" d="M204.149,157.04c-1.471,0-2.667,1.196-2.667,2.668c0,1.471,1.196,2.668,2.667,2.668     c1.472,0,2.669-1.197,2.669-2.668C206.818,158.236,205.62,157.04,204.149,157.04z"/>
			<path fill="#414042" d="M208.768,159.706c0-2.547-2.071-4.619-4.619-4.619c-2.546,0-4.617,2.072-4.617,4.619     c0,2.213,1.563,4.064,3.643,4.515v27.541c0,2.741-2.364,4.972-5.271,4.972h-22.211c-2.906,0-5.271-2.23-5.271-4.972v-27.541     c2.081-0.449,3.646-2.302,3.646-4.515c0-2.547-2.073-4.619-4.621-4.619c-2.546,0-4.618,2.072-4.618,4.619     c0,2.213,1.563,4.064,3.643,4.515v27.541c0,3.817,3.239,6.923,7.223,6.923h22.211c3.981,0,7.222-3.105,7.222-6.923v-27.541     C207.204,163.771,208.768,161.919,208.768,159.706z M169.446,157.04c1.473,0,2.67,1.196,2.67,2.668     c0,1.471-1.197,2.668-2.67,2.668c-1.471,0-2.667-1.197-2.667-2.668C166.779,158.236,167.975,157.04,169.446,157.04z      M204.149,162.374c-1.471,0-2.667-1.196-2.667-2.668c0-1.471,1.196-2.668,2.667-2.668c1.472,0,2.669,1.197,2.669,2.668     C206.818,161.178,205.62,162.374,204.149,162.374z"/>
			<path fill="#FFFFFF" d="M169.446,162.374c1.473,0,2.67-1.196,2.67-2.668c0-1.471-1.197-2.668-2.67-2.668     c-1.471,0-2.667,1.197-2.667,2.668C166.779,161.178,167.975,162.374,169.446,162.374z"/>
		</g>
	</g>
	<g>
		<g>
			<g>
				<polygon fill="#BCBEC0" points="478.371,205.487 478.371,185.094 478.371,167.59 464.664,167.59 464.664,231.601       478.371,231.601     "/>
				<rect x="480.525" y="206.563" fill="#F1F2F2" width="36.396" height="25.038"/>
				<rect x="480.525" y="186.172" fill="#F1F2F2" width="36.396" height="18.238"/>
				<rect x="480.525" y="167.59" fill="#F1F2F2" width="36.396" height="16.428"/>
				<path fill="#414042" d="M517.995,165.437h-38.549h-15.86c-0.595,0-1.076,0.482-1.076,1.078v66.162      c0,0.594,0.481,1.078,1.076,1.078h15.86h38.549c0.596,0,1.078-0.484,1.078-1.078v-27.189v-20.394v-18.582      C519.073,165.919,518.591,165.437,517.995,165.437z M516.92,231.601h-36.396v-25.037h36.396V231.601z M464.664,167.59h13.707      v17.504v20.394v26.113h-13.707V167.59z M516.92,204.41h-36.396v-18.238h36.396V204.41z M516.92,184.018h-36.396V167.59h36.396      V184.018z"/>
			</g>
			<g>
				<path fill="#414042" d="M511.743,221.858h-7.371c-0.595,0-1.077-0.483-1.077-1.078s0.482-1.077,1.077-1.077h7.371      c0.595,0,1.078,0.482,1.078,1.077S512.338,221.858,511.743,221.858z"/>
			</g>
			<g>
				<path fill="#414042" d="M511.743,227.297h-18.255c-0.594,0-1.077-0.483-1.077-1.077c0-0.595,0.483-1.076,1.077-1.076h18.255      c0.595,0,1.078,0.481,1.078,1.076C512.822,226.813,512.338,227.297,511.743,227.297z"/>
			</g>
			<g>
				<path fill="#08B3BD" d="M498.721,190.043c-2.893,0-5.247,2.354-5.247,5.247s2.354,5.249,5.247,5.249      c2.895,0,5.248-2.355,5.248-5.249S501.616,190.043,498.721,190.043z"/>
				<path fill="#414042" d="M498.721,187.89c-4.079,0-7.4,3.319-7.4,7.4s3.321,7.401,7.4,7.401c4.082,0,7.401-3.32,7.401-7.401      C506.123,191.209,502.804,187.89,498.721,187.89z M498.721,200.539c-2.893,0-5.247-2.355-5.247-5.249s2.354-5.247,5.247-5.247      c2.895,0,5.248,2.354,5.248,5.247S501.616,200.539,498.721,200.539z"/>
			</g>
		</g>
		<g>
			<g>
				<polygon fill="#D3D4DA" points="450.451,214.613 450.451,201.063 450.451,189.796 436.743,189.796 436.743,231.601       450.451,231.601     "/>
				<rect x="452.604" y="215.688" fill="#FFFFFF" width="25.768" height="15.912"/>
				<rect x="452.604" y="202.14" fill="#08B3BD" width="25.768" height="11.396"/>
				<rect x="452.604" y="189.796" fill="#FFFFFF" width="25.768" height="10.188"/>
				<path fill="#414042" d="M479.448,187.643h-27.92h-15.86c-0.596,0-1.077,0.482-1.077,1.077v43.957      c0,0.594,0.481,1.078,1.077,1.078h15.86h27.92c0.595,0,1.078-0.484,1.078-1.078v-18.063v-13.55V188.72      C480.525,188.125,480.042,187.643,479.448,187.643z M478.371,231.601h-25.768v-15.912h25.768V231.601z M436.743,189.796h13.708      v11.267v13.548v16.99h-13.708V189.796z M478.371,213.535h-25.768V202.14h25.768V213.535z M478.371,199.987h-25.768v-10.19      h25.768V199.987z"/>
			</g>
			<g>
				<path fill="#414042" d="M473.545,206.563h-14.352c-0.595,0-1.078-0.481-1.078-1.076s0.483-1.077,1.078-1.077h14.352      c0.596,0,1.077,0.482,1.077,1.077S474.141,206.563,473.545,206.563z"/>
			</g>
			<g>
				<path fill="#414042" d="M473.545,210.941h-14.352c-0.595,0-1.078-0.481-1.078-1.076s0.483-1.077,1.078-1.077h14.352      c0.596,0,1.077,0.482,1.077,1.077S474.141,210.941,473.545,210.941z"/>
			</g>
			<g>
				<rect x="441.222" y="196.365" fill="#F1F2F2" width="4.414" height="2.151"/>
				<path fill="#414042" d="M446.711,194.213h-6.567c-0.594,0-1.076,0.482-1.076,1.077v4.305c0,0.595,0.482,1.078,1.076,1.078h6.567      c0.595,0,1.078-0.483,1.078-1.078v-4.305C447.789,194.695,447.307,194.213,446.711,194.213z M445.636,198.519h-4.414v-2.151      h4.414V198.519z"/>
			</g>
			<g>
				<rect x="441.222" y="205.854" fill="#FFFFFF" width="4.414" height="20.044"/>
				<path fill="#414042" d="M446.711,203.701h-6.567c-0.594,0-1.076,0.482-1.076,1.078v22.196c0,0.594,0.482,1.077,1.076,1.077      h6.567c0.595,0,1.078-0.483,1.078-1.077v-22.196C447.789,204.182,447.307,203.701,446.711,203.701z M445.636,225.898h-4.414      v-20.044h4.414V225.898z"/>
			</g>
		</g>
	</g>
	<g>
		<g>
			<g>
				<path fill="#FFFFFF" d="M498.404,146.592c0,0.764-0.612,1.385-1.365,1.385h-35.422c-0.752,0-1.363-0.621-1.363-1.385v-8.47      h38.15V146.592z"/>
				<rect x="460.252" y="132.223" fill="#08B3BD" width="38.15" height="3.948"/>
				<path fill="#FFFFFF" d="M460.252,126.721c0-0.764,0.611-1.386,1.363-1.386h35.422c0.753,0,1.365,0.622,1.365,1.386v3.551h-38.15      V126.721z"/>
				<path fill="#414042" d="M461.616,123.384h35.422c1.813,0,3.289,1.497,3.289,3.337v4.525v5.901v9.443      c0,1.84-1.476,3.336-3.289,3.336h-35.422c-1.812,0-3.287-1.496-3.287-3.336v-9.443v-5.901v-4.525      C458.328,124.88,459.805,123.384,461.616,123.384z M460.252,146.592c0,0.764,0.611,1.385,1.363,1.385h35.422      c0.753,0,1.365-0.621,1.365-1.385v-8.47h-38.15V146.592z M498.404,126.721c0-0.764-0.612-1.386-1.365-1.386h-35.422      c-0.752,0-1.363,0.622-1.363,1.386v3.551h38.15V126.721z M460.252,136.171h38.15v-3.948h-38.15V136.171z"/>
			</g>
			<g>
				<path fill="#414042" d="M493.504,141.862h2.172c0.531,0,0.962-0.438,0.962-0.977s-0.431-0.976-0.962-0.976h-2.172      c-0.53,0-0.962,0.437-0.962,0.976S492.974,141.862,493.504,141.862z"/>
			</g>
			<g>
				<path fill="#414042" d="M488.46,141.862h2.174c0.531,0,0.962-0.438,0.962-0.977s-0.431-0.976-0.962-0.976h-2.174      c-0.529,0-0.961,0.437-0.961,0.976S487.931,141.862,488.46,141.862z"/>
			</g>
			<g>
				<path fill="#414042" d="M488.46,141.862h2.174c0.531,0,0.962-0.438,0.962-0.977s-0.431-0.976-0.962-0.976h-2.174      c-0.529,0-0.961,0.437-0.961,0.976S487.931,141.862,488.46,141.862z"/>
			</g>
			<g>
				<path fill="#414042" d="M483.03,141.862h2.173c0.531,0,0.962-0.438,0.962-0.977s-0.431-0.976-0.962-0.976h-2.173      c-0.531,0-0.962,0.437-0.962,0.976S482.497,141.862,483.03,141.862z"/>
			</g>
			<g>
				<path fill="#414042" d="M474.031,145.796h21.646c0.531,0,0.962-0.438,0.962-0.977c0-0.538-0.431-0.976-0.962-0.976h-21.646      c-0.531,0-0.962,0.438-0.962,0.976C473.07,145.359,473.499,145.796,474.031,145.796z"/>
			</g>
		</g>
	</g>
	<g>
		<g>
			<polygon fill="#D1D3D4" points="96.604,202.519 101.877,232.18 144.941,232.18 150.214,202.519    "/>
			<path fill="#FFCC42" d="M154.298,195.593H92.519c-0.12,0-0.217,0.098-0.217,0.217v4.986c0,0.119,0.097,0.216,0.217,0.216h3.187     h55.408h3.186c0.12,0,0.217-0.097,0.217-0.216v-4.986C154.515,195.69,154.419,195.593,154.298,195.593z"/>
			<path fill="#414042" d="M154.298,194.085H92.519c-0.949,0-1.723,0.773-1.723,1.725v4.986c0,0.949,0.773,1.723,1.723,1.723h2.556     l5.43,30.546c0.064,0.358,0.377,0.621,0.742,0.621h44.326c0.364,0,0.678-0.262,0.741-0.621l5.431-30.546h2.555     c0.95,0,1.723-0.773,1.723-1.723v-4.986C156.021,194.859,155.249,194.085,154.298,194.085z M154.515,200.796     c0,0.119-0.097,0.216-0.217,0.216h-3.186H95.704h-3.187c-0.12,0-0.217-0.097-0.217-0.216v-4.986c0-0.119,0.097-0.217,0.217-0.217     h61.779c0.12,0,0.217,0.098,0.217,0.217L154.515,200.796L154.515,200.796z M101.877,232.18l-5.273-29.661h53.611l-5.272,29.661     H101.877z"/>
		</g>
		<g>
			<rect x="99.228" y="178.971" fill="#F1F2F2" width="17.888" height="15.114"/>
			<path fill="#414042" d="M117.869,177.464H98.475c-0.416,0-0.753,0.337-0.753,0.753v16.622c0,0.416,0.337,0.754,0.753,0.754     h19.395c0.416,0,0.752-0.338,0.752-0.754v-16.622C118.621,177.801,118.285,177.464,117.869,177.464z M117.115,194.085H99.228     v-15.114h17.888V194.085z"/>
		</g>
		<g>
			<rect x="118.621" y="185.204" fill="#D3D4DA" width="30.354" height="8.883"/>
			<path fill="#414042" d="M149.728,183.697h-31.858c-0.416,0-0.754,0.337-0.754,0.753v10.391c0,0.416,0.338,0.753,0.754,0.753     h31.858c0.416,0,0.752-0.337,0.752-0.753V184.45C150.48,184.034,150.144,183.697,149.728,183.697z M148.974,194.085H118.62     v-8.881h30.354V194.085z"/>
		</g>
		<g>
			<path fill="#F1F2F2" d="M123.409,207.245c-0.992,0-1.8,0.799-1.8,1.781v17.264c0,0.982,0.808,1.781,1.8,1.781     c0.993,0,1.8-0.799,1.8-1.781v-17.264C125.209,208.044,124.403,207.245,123.409,207.245z"/>
			<path fill="#414042" d="M123.409,205.738c-1.823,0-3.307,1.476-3.307,3.288v17.264c0,1.813,1.482,3.289,3.307,3.289     c1.823,0,3.306-1.477,3.306-3.289v-17.264C126.714,207.214,125.232,205.738,123.409,205.738z M125.209,226.29     c0,0.982-0.807,1.781-1.8,1.781c-0.992,0-1.8-0.799-1.8-1.781v-17.264c0-0.982,0.808-1.781,1.8-1.781     c0.993,0,1.8,0.799,1.8,1.781V226.29z"/>
			<path fill="#F1F2F2" d="M109.975,207.245c-0.991,0-1.8,0.799-1.8,1.781v17.264c0,0.982,0.808,1.781,1.8,1.781     c0.993,0,1.801-0.799,1.801-1.781v-17.264C111.776,208.044,110.968,207.245,109.975,207.245z"/>
			<path fill="#414042" d="M109.975,205.738c-1.822,0-3.306,1.476-3.306,3.288v17.264c0,1.813,1.482,3.289,3.306,3.289     c1.824,0,3.307-1.477,3.307-3.289v-17.264C113.281,207.214,111.798,205.738,109.975,205.738z M111.776,226.29     c0,0.982-0.808,1.781-1.801,1.781c-0.992,0-1.8-0.799-1.8-1.781v-17.264c0-0.982,0.808-1.781,1.8-1.781     c0.993,0,1.801,0.799,1.801,1.781V226.29z"/>
			<path fill="#F1F2F2" d="M136.841,207.245c-0.992,0-1.799,0.799-1.799,1.781v17.264c0,0.982,0.807,1.781,1.799,1.781     c0.993,0,1.801-0.799,1.801-1.781v-17.264C138.642,208.044,137.835,207.245,136.841,207.245z"/>
			<path fill="#414042" d="M136.841,205.738c-1.822,0-3.305,1.476-3.305,3.288v17.264c0,1.813,1.481,3.289,3.305,3.289     c1.824,0,3.307-1.477,3.307-3.289v-17.264C140.148,207.214,138.666,205.738,136.841,205.738z M138.642,226.29     c0,0.982-0.808,1.781-1.801,1.781c-0.992,0-1.799-0.799-1.799-1.781v-17.264c0-0.982,0.807-1.781,1.799-1.781     c0.993,0,1.801,0.799,1.801,1.781V226.29z"/>
		</g>
		<g>
			<path fill="#414042" d="M145.698,198.842H91.549c-0.416,0-0.753-0.337-0.753-0.753c0-0.418,0.337-0.754,0.753-0.754h54.148     c0.416,0,0.754,0.336,0.754,0.754C146.451,198.505,146.114,198.842,145.698,198.842z"/>
		</g>
		<g>
			<path fill="#FFCC42" d="M108.171,182.97c-1.963,0-3.559,1.597-3.559,3.559c0,1.963,1.596,3.559,3.559,3.559     s3.559-1.596,3.559-3.559C111.73,184.566,110.134,182.97,108.171,182.97z"/>
			<path fill="#414042" d="M108.171,181.464c-2.793,0-5.064,2.271-5.064,5.063c0,2.792,2.271,5.065,5.064,5.065     s5.064-2.273,5.064-5.065C113.237,183.735,110.964,181.464,108.171,181.464z M108.171,190.087c-1.963,0-3.559-1.598-3.559-3.56     s1.596-3.559,3.559-3.559s3.559,1.597,3.559,3.559S110.134,190.087,108.171,190.087z"/>
		</g>
		<g>
			<path fill="#414042" d="M128.872,189.092h-6.105c-0.417,0-0.753-0.337-0.753-0.753s0.336-0.754,0.753-0.754h6.105     c0.416,0,0.753,0.338,0.753,0.754S129.288,189.092,128.872,189.092z"/>
		</g>
		<g>
			<path fill="#414042" d="M143.494,191.941h-20.729c-0.417,0-0.753-0.337-0.753-0.753c0-0.417,0.336-0.754,0.753-0.754h20.729     c0.416,0,0.754,0.337,0.754,0.754C144.248,191.604,143.91,191.941,143.494,191.941z"/>
		</g>
		<g>
			<rect x="125.546" y="173.43" fill="#FFFFFF" width="17.194" height="2.056"/>
			<rect x="125.546" y="181.831" fill="#FFFFFF" width="17.194" height="1.865"/>
			<path fill="#414042" d="M143.494,171.923h-18.699c-0.416,0-0.754,0.337-0.754,0.753v3.563v4.841v3.371     c0,0.418,0.338,0.754,0.754,0.754h18.699c0.416,0,0.754-0.336,0.754-0.754v-3.371v-4.841v-3.563     C144.248,172.26,143.91,171.923,143.494,171.923z M142.741,173.43v2.056h-17.194v-2.056H142.741z M142.741,176.991v3.336h-17.194     v-3.336H142.741z M125.546,183.697v-1.864h17.194v1.864H125.546z"/>
			<rect x="125.546" y="176.991" fill="#08B3BD" width="17.194" height="3.336"/>
		</g>
	</g>
	<g>
		<g>
			<path fill="#08B3BD" d="M577.843,202.77h-21.205h-4.668h-21.204c-0.393,0-0.723,0.42-0.723,0.917v2.248     c0,0.498,0.33,0.918,0.723,0.918h1.603h43.871h1.604c0.391,0,0.721-0.42,0.721-0.918v-2.248     C578.564,203.189,578.234,202.77,577.843,202.77z"/>
			<path fill="#414042" d="M577.843,200.669h-20.154v-12.898c0-1.247-1.014-2.261-2.259-2.261h-2.252     c-1.245,0-2.259,1.014-2.259,2.261v12.898h-20.153c-1.558,0-2.821,1.354-2.821,3.018v2.248c0,1.665,1.265,3.02,2.821,3.02h0.553     v19.56c0,2.75,2.061,4.985,4.593,4.985h36.785c2.532,0,4.593-2.235,4.593-4.985v-19.56h0.555c1.556,0,2.82-1.354,2.82-3.02     v-2.248C580.663,202.023,579.399,200.669,577.843,200.669z M578.564,205.935c0,0.498-0.33,0.918-0.721,0.918h-1.604h-43.871     h-1.603c-0.393,0-0.723-0.42-0.723-0.918v-2.248c0-0.497,0.33-0.917,0.723-0.917h21.204h4.668h21.205     c0.391,0,0.721,0.42,0.721,0.917L578.564,205.935L578.564,205.935z M575.19,228.513c0,1.592-1.119,2.886-2.493,2.886h-36.785     c-1.374,0-2.493-1.294-2.493-2.886v-19.561h41.771V228.513L575.19,228.513z M553.02,187.771c0-0.089,0.07-0.159,0.158-0.159     h2.252c0.088,0,0.158,0.07,0.158,0.159v12.898h-2.568V187.771L553.02,187.771z"/>
			<path fill="#F1F2F2" d="M533.417,228.513c0,1.592,1.119,2.886,2.493,2.886h36.785c1.374,0,2.493-1.294,2.493-2.886v-19.561     h-41.771V228.513L533.417,228.513z"/>
			<path fill="#D3D4DA" d="M555.587,187.771c0-0.089-0.069-0.159-0.157-0.159h-2.252c-0.088,0-0.158,0.07-0.158,0.159v12.898h2.567     V187.771L555.587,187.771z"/>
		</g>
		<g>
			<path fill="#FFFFFF" d="M554.304,212.13c-0.439,0-0.811,0.465-0.811,1.014v14.063c0,0.551,0.37,1.016,0.811,1.016     c0.438,0,0.809-0.465,0.809-1.016v-14.063C555.113,212.595,554.742,212.13,554.304,212.13z"/>
			<path fill="#414042" d="M554.304,210.029c-1.604,0-2.91,1.396-2.91,3.114v14.063c0,1.719,1.306,3.115,2.91,3.115     c1.604,0,2.908-1.396,2.908-3.115v-14.063C557.212,211.426,555.908,210.029,554.304,210.029z M555.113,227.206     c0,0.551-0.37,1.016-0.809,1.016c-0.439,0-0.811-0.465-0.811-1.016v-14.063c0-0.549,0.37-1.014,0.811-1.014     c0.438,0,0.809,0.465,0.809,1.014V227.206z"/>
			<path fill="#FFFFFF" d="M542.329,212.13c-0.438,0-0.81,0.465-0.81,1.014v14.063c0,0.551,0.371,1.016,0.81,1.016     c0.439,0,0.811-0.465,0.811-1.016v-14.063C543.139,212.595,542.769,212.13,542.329,212.13z"/>
			<path fill="#414042" d="M542.329,210.029c-1.604,0-2.909,1.396-2.909,3.114v14.063c0,1.719,1.306,3.115,2.909,3.115     c1.604,0,2.91-1.396,2.91-3.115v-14.063C545.24,211.426,543.934,210.029,542.329,210.029z M543.139,227.206     c0,0.551-0.37,1.016-0.811,1.016c-0.438,0-0.81-0.465-0.81-1.016v-14.063c0-0.549,0.371-1.014,0.81-1.014     c0.439,0,0.811,0.465,0.811,1.014V227.206z"/>
			<path fill="#FFFFFF" d="M566.279,212.13c-0.438,0-0.81,0.465-0.81,1.014v14.063c0,0.551,0.37,1.016,0.81,1.016     s0.81-0.465,0.81-1.016v-14.063C567.087,212.595,566.718,212.13,566.279,212.13z"/>
			<path fill="#414042" d="M566.279,210.029c-1.604,0-2.909,1.396-2.909,3.114v14.063c0,1.719,1.305,3.115,2.909,3.115     s2.909-1.396,2.909-3.115v-14.063C569.188,211.426,567.883,210.029,566.279,210.029z M567.087,227.206     c0,0.551-0.369,1.016-0.81,1.016c-0.438,0-0.81-0.465-0.81-1.016v-14.063c0-0.549,0.37-1.014,0.81-1.014s0.81,0.465,0.81,1.014     V227.206z"/>
		</g>
	</g>
</g>
<g>
	<g>
		<g>
			<g>
				<path fill="#C7EFEF" d="M242.94,203.465c-6.063,0-10.996-4.934-10.996-10.997v-80.327c0-6.064,4.933-10.998,10.996-10.998      h136.037c6.063,0,10.997,4.934,10.997,10.998v80.327c0,6.063-4.934,10.997-10.997,10.997H242.94z"/>
				<path fill="#414042" d="M378.977,103.269c4.897,0,8.871,3.974,8.871,8.872v80.327c0,4.896-3.974,8.871-8.871,8.871H242.94      c-4.896,0-8.87-3.975-8.87-8.871v-80.327c0-4.898,3.974-8.872,8.87-8.872H378.977 M378.977,99.017H242.94      c-7.235,0-13.122,5.887-13.122,13.124v80.327c0,7.236,5.887,13.123,13.122,13.123h136.037c7.236,0,13.123-5.887,13.123-13.123      v-80.327C392.1,104.904,386.213,99.017,378.977,99.017L378.977,99.017z"/>
			</g>
		</g>
		<g>
			<rect x="234.07" y="115.097" fill="#08B3BD" width="153.779" height="23.66"/>
		</g>
		<g>
			<rect x="233.285" y="112.14" fill="#414042" width="154.563" height="5.915"/>
		</g>
		<g>
			<rect x="233.285" y="135.796" fill="#414042" width="38.64" height="5.916"/>
		</g>
		<g>
			<rect x="248.856" y="153.54" fill="#414042" width="14.786" height="5.916"/>
		</g>
		<g>
			<rect x="343.49" y="123.97" fill="#414042" width="29.572" height="5.914"/>
		</g>
		<g>
			<rect x="325.747" y="123.97" fill="#414042" width="11.829" height="5.914"/>
		</g>
	</g>
	<g>
		<g>
			<g>
				<path fill="#FFFFFF" d="M272.513,238.948c-6.064,0-10.997-4.933-10.997-10.996v-80.326c0-6.063,4.933-10.997,10.997-10.997      h136.036c6.064,0,10.998,4.933,10.998,10.997v80.326c0,6.063-4.934,10.996-10.998,10.996H272.513z"/>
				<path fill="#414042" d="M408.549,138.755c4.897,0,8.872,3.972,8.872,8.871v80.326c0,4.897-3.975,8.87-8.872,8.87H272.513      c-4.896,0-8.871-3.974-8.871-8.87v-80.326c0-4.898,3.974-8.871,8.871-8.871H408.549 M408.549,134.503H272.513      c-7.236,0-13.123,5.887-13.123,13.123v80.326c0,7.235,5.887,13.122,13.123,13.122h136.036c7.236,0,13.124-5.887,13.124-13.122      v-80.326C421.673,140.39,415.785,134.503,408.549,134.503L408.549,134.503z"/>
			</g>
		</g>
		<g>
			<circle fill="#FFCC42" cx="388.654" cy="217.334" r="7.718"/>
		</g>
		<g>
			<circle fill="#08B3BD" cx="399.681" cy="217.334" r="7.718"/>
		</g>
		<g opacity="0.5">
			<path fill="#414042" d="M325.328,209.335h-49.501c-0.255,0-0.46,0.206-0.46,0.46v5.997c0,0.255,0.206,0.461,0.46,0.461h49.501     c0.254,0,0.46-0.206,0.46-0.461v-5.997C325.789,209.541,325.582,209.335,325.328,209.335z"/>
			<path fill="#414042" d="M351.833,209.501h-20.332c-0.163,0-0.295,0.132-0.295,0.295v5.998c0,0.162,0.132,0.294,0.295,0.294     h20.332c0.163,0,0.295-0.132,0.295-0.294v-5.998C352.128,209.633,351.996,209.501,351.833,209.501z"/>
			<path fill="#414042" d="M287.305,218.913h-11.478c-0.124,0-0.222,0.1-0.222,0.222v5.999c0,0.122,0.099,0.222,0.222,0.222h11.478     c0.123,0,0.221-0.1,0.221-0.222v-5.999C287.527,219.013,287.427,218.913,287.305,218.913z"/>
			<path fill="#414042" d="M302.859,218.913h-11.478c-0.123,0-0.221,0.1-0.221,0.222v5.999c0,0.122,0.099,0.222,0.221,0.222h11.478     c0.124,0,0.222-0.1,0.222-0.222v-5.999C303.082,219.013,302.983,218.913,302.859,218.913z"/>
		</g>
		<g opacity="0.8">
			<path fill="#414042" d="M304.417,190.733h-28.589c-0.256,0-0.462,0.184-0.462,0.408v9.192c0,0.225,0.206,0.408,0.462,0.408     h28.589c0.254,0,0.461-0.184,0.461-0.408v-9.192C304.878,190.917,304.67,190.733,304.417,190.733z"/>
			<path fill="#414042" d="M338.353,190.733h-28.594c-0.256,0-0.462,0.184-0.462,0.408v9.192c0,0.225,0.207,0.408,0.462,0.408     h28.594c0.254,0,0.462-0.184,0.462-0.408v-9.192C338.815,190.917,338.607,190.733,338.353,190.733z"/>
			<path fill="#414042" d="M373.095,190.733h-28.587c-0.255,0-0.463,0.184-0.463,0.408v9.192c0,0.225,0.208,0.408,0.463,0.408     h28.587c0.255,0,0.463-0.184,0.463-0.408v-9.192C373.558,190.917,373.35,190.733,373.095,190.733z"/>
			<path fill="#414042" d="M406.937,190.733h-28.588c-0.255,0-0.463,0.184-0.463,0.408v9.192c0,0.225,0.208,0.408,0.463,0.408     h28.588c0.254,0,0.462-0.184,0.462-0.408v-9.192C407.4,190.917,407.191,190.733,406.937,190.733z"/>
		</g>
		<g>
			<path fill="#FFB34C" d="M307.167,179.535c0,2.21-1.793,4.003-4.003,4.003H279.83c-2.21,0-4.003-1.793-4.003-4.003v-14.199     c0-2.214,1.792-4.004,4.003-4.004h23.333c2.21,0,4.003,1.79,4.003,4.004V179.535z"/>
		</g>
		<g opacity="0.1">
			
				<line fill="none" stroke="#000000" stroke-width="1.1438" stroke-miterlimit="10" x1="284.263" y1="161.332" x2="284.263" y2="183.538"/>
			
				<line fill="none" stroke="#000000" stroke-width="1.1438" stroke-miterlimit="10" x1="298.588" y1="161.332" x2="298.588" y2="183.538"/>
			
				<line fill="none" stroke="#000000" stroke-width="1.1438" stroke-miterlimit="10" x1="275.827" y1="168.382" x2="284.263" y2="168.382"/>
			
				<line fill="none" stroke="#000000" stroke-width="1.1438" stroke-miterlimit="10" x1="275.827" y1="177.175" x2="284.263" y2="177.175"/>
			
				<line fill="none" stroke="#000000" stroke-width="1.1438" stroke-miterlimit="10" x1="298.731" y1="177.175" x2="307.167" y2="177.175"/>
			
				<line fill="none" stroke="#000000" stroke-width="1.1438" stroke-miterlimit="10" x1="298.731" y1="168.382" x2="307.167" y2="168.382"/>
		</g>
	</g>
</g>
<g>
	<g opacity="0.5">
		<g>
			<g id="XMLID_114_">
				<g id="XMLID_177_">
					<rect x="521.156" y="118.181" fill="#414042" width="4.928" height="1.785"/>
				</g>
				<g id="XMLID_176_">
					<rect x="522.739" y="116.584" fill="#414042" width="1.767" height="4.979"/>
				</g>
			</g>
			<g>
				<path fill="#414042" d="M513.42,130.272h3.534v-1.784h-2.651v-3.016h-1.767v3.571h0.884V130.272z M520.486,130.272h3.534v-1.784      h-3.534V130.272z M527.553,130.272h3.535v-1.784h-3.534L527.553,130.272L527.553,130.272z M532.938,128.572h1.767V125h-1.767      V128.572z M512.536,121.902h1.767v-3.571h-1.767V121.902z M532.938,121.429h1.767v-3.569h-1.767V121.429z M512.536,114.759      h1.767v-3.57h-1.767V114.759z M532.938,114.289h1.767v-3.57h-1.767V114.289z M514.555,109.659h3.533v-1.786h-3.533V109.659z       M521.621,109.659h3.534v-1.786h-3.534V109.659z M528.689,109.659h3.533v-1.786h-3.533V109.659z"/>
			</g>
		</g>
		<g>
			<g id="XMLID_1_">
				<g id="XMLID_3_">
					<rect x="161.115" y="117.398" fill="#414042" width="3.694" height="1.339"/>
				</g>
				<g id="XMLID_2_">
					<rect x="162.301" y="116.203" fill="#414042" width="1.325" height="3.733"/>
				</g>
			</g>
			<g>
				<path fill="#414042" d="M155.314,126.467h2.649v-1.338h-1.987v-2.264h-1.324v2.68h0.662V126.467z M160.614,126.467h2.649v-1.338      h-2.649V126.467z M165.913,126.467h2.647v-1.338h-2.647V126.467z M169.95,125.19h1.324v-2.678h-1.324V125.19z M154.652,120.189      h1.324v-2.678h-1.324V120.189z M169.95,119.835h1.324v-2.679h-1.324V119.835z M154.652,114.833h1.324v-2.678h-1.324V114.833z       M169.95,114.48h1.324v-2.677h-1.324V114.48z M156.164,111.008h2.647v-1.339h-2.647V111.008z M161.464,111.008h2.647v-1.339      h-2.647V111.008z M166.764,111.008h2.65v-1.339h-2.65V111.008z"/>
			</g>
		</g>
		<g id="XMLID_957_">
			<g id="XMLID_961_">
				
					<rect x="416.533" y="86.166" transform="matrix(0.7068 0.7074 -0.7074 0.7068 184.2332 -270.0121)" fill="#414042" width="2.678" height="2.191"/>
			</g>
			<g id="XMLID_960_">
				
					<rect x="411.607" y="81.278" transform="matrix(0.7072 0.707 -0.707 0.7072 179.1512 -267.8405)" fill="#414042" width="2.679" height="2.191"/>
			</g>
			<g id="XMLID_959_">
				
					<rect x="411.838" y="85.948" transform="matrix(0.7071 0.7071 -0.7071 0.7071 182.6734 -266.4101)" fill="#414042" width="2.168" height="2.707"/>
			</g>
			<g id="XMLID_958_">
				
					<rect x="416.8" y="80.989" transform="matrix(0.7072 0.707 -0.707 0.7072 180.5637 -271.3334)" fill="#414042" width="2.168" height="2.707"/>
			</g>
		</g>
		<g id="XMLID_87_">
			<g id="XMLID_153_">
				
					<rect x="574.914" y="178.518" transform="matrix(0.7069 0.7073 -0.7073 0.7069 295.924 -354.9378)" fill="#414042" width="2.679" height="2.19"/>
			</g>
			<g id="XMLID_150_">
				
					<rect x="569.999" y="173.621" transform="matrix(0.7073 0.7069 -0.7069 0.7073 290.7488 -352.7512)" fill="#414042" width="2.679" height="2.193"/>
			</g>
			<g id="XMLID_146_">
				
					<rect x="570.247" y="178.285" transform="matrix(0.7078 0.7064 -0.7064 0.7078 293.8562 -351.1127)" fill="#414042" width="2.169" height="2.708"/>
			</g>
			<g id="XMLID_92_">
				
					<rect x="575.143" y="173.357" transform="matrix(0.7069 0.7073 -0.7073 0.7069 292.4819 -356.372)" fill="#414042" width="2.168" height="2.71"/>
			</g>
		</g>
		<g id="XMLID_155_">
			<g id="XMLID_180_">
				
					<rect x="186.648" y="82.167" transform="matrix(0.7072 0.7071 -0.7071 0.7072 115.0315 -109.1305)" fill="#414042" width="5.224" height="4.272"/>
			</g>
			<g id="XMLID_179_">
				
					<rect x="177.095" y="72.599" transform="matrix(0.7071 0.7072 -0.7072 0.7071 105.4925 -105.188)" fill="#414042" width="5.226" height="4.271"/>
			</g>
			<g id="XMLID_178_">
				
					<rect x="177.549" y="81.71" transform="matrix(0.7069 0.7073 -0.7073 0.7069 112.3276 -102.3574)" fill="#414042" width="4.227" height="5.279"/>
			</g>
			<g id="XMLID_156_">
				
					<rect x="187.203" y="72.048" transform="matrix(0.7072 0.707 -0.707 0.7072 108.2464 -111.9856)" fill="#414042" width="4.228" height="5.279"/>
			</g>
		</g>
		<g id="XMLID_143_">
			<g id="XMLID_237_">
				
					<rect x="221.128" y="75.523" transform="matrix(0.7074 0.7068 -0.7068 0.7074 119.2841 -134.8879)" fill="#414042" width="2.844" height="2.191"/>
			</g>
			<g id="XMLID_236_">
				
					<rect x="215.929" y="70.315" transform="matrix(0.707 0.7072 -0.7072 0.707 114.1802 -132.7871)" fill="#414042" width="2.844" height="2.191"/>
			</g>
			<g id="XMLID_234_">
				
					<rect x="216.24" y="75.205" transform="matrix(0.7072 0.707 -0.707 0.7072 117.8136 -131.2076)" fill="#414042" width="2.168" height="2.874"/>
			</g>
			<g id="XMLID_192_">
				
					<rect x="221.499" y="69.948" transform="matrix(0.7068 0.7074 -0.7074 0.7068 115.7687 -136.5325)" fill="#414042" width="2.167" height="2.873"/>
			</g>
		</g>
		<g id="XMLID_202_">
			<g id="XMLID_209_">
				
					<rect x="447.825" y="68.043" transform="matrix(0.707 0.7072 -0.7072 0.707 181.1338 -297.7331)" fill="#414042" width="4.191" height="3.425"/>
			</g>
			<g id="XMLID_207_">
				
					<rect x="440.158" y="60.374" transform="matrix(0.7072 0.707 -0.707 0.7072 173.4048 -294.5132)" fill="#414042" width="4.19" height="3.425"/>
			</g>
			<g id="XMLID_206_">
				
					<rect x="440.525" y="67.671" transform="matrix(0.7074 0.7068 -0.7068 0.7074 178.7237 -292.1493)" fill="#414042" width="3.391" height="4.235"/>
			</g>
			<g id="XMLID_203_">
				
					<rect x="448.272" y="59.926" transform="matrix(0.7071 0.7071 -0.7071 0.7071 175.6631 -300.0028)" fill="#414042" width="3.389" height="4.234"/>
			</g>
		</g>
		<g>
			<rect x="83.221" y="149.368" fill="#414042" width="27.138" height="2.191"/>
		</g>
		<g>
			<rect x="74.245" y="149.368" fill="#414042" width="6.82" height="2.191"/>
		</g>
		<g>
			<rect x="257.035" y="78.423" fill="#414042" width="42.71" height="2.191"/>
		</g>
		<g>
			<rect x="248.059" y="78.423" fill="#414042" width="6.82" height="2.191"/>
		</g>
		<g>
			<rect x="411.99" y="115.61" fill="#414042" width="6.82" height="2.191"/>
		</g>
		<g>
			<rect x="512.593" y="150.114" fill="#414042" width="42.709" height="2.19"/>
		</g>
		<g>
			<polygon fill="#414042" points="324.691,82.235 313.471,71.019 317.43,67.061 324.691,74.319 338.427,60.584 342.388,64.548         "/>
		</g>
		<g>
			<polygon fill="#414042" points="452.426,102.076 445.639,95.291 448.034,92.897 452.426,97.288 460.731,88.983 463.129,91.377         "/>
		</g>
		<g>
			<polygon fill="#414042" points="56.129,197.763 51.366,193.001 53.046,191.321 56.129,194.403 61.962,188.571 63.642,190.255         "/>
		</g>
		<g>
			<path fill="#414042" d="M114.447,122.001l-2.861-2.971l2.411-2.324l2.86,2.971l2.972-2.865l2.135,2.215l-2.973,2.861l2.884,2.992     l-2.41,2.324l-2.883-2.99l-2.933,2.826l-2.134-2.217L114.447,122.001z"/>
		</g>
	</g>
</g>
</svg>
